<?xml version="1.0" standalone="no"?>
<svg xmlns="http://www.w3.org/2000/svg" width="800px" height="800px"><rect width="800px" height="800px" fill="silver"></rect><path fill="none" stroke="#444" d="M0 0 M16 784 H784 V16 M18 782 H782 V18 M20 780 H780 V20 M22 778 H778 V22 M24 776 H776 V24 M26 774 H774 V26 M28 772 H772 V28 M17 783 H783 V17 M19 781 H781 V19 M21 779 H779 V21 M23 777 H777 V23 M25 775 H775 V25 M27 773 H773 V27 M29 771 V29 H771 M35 765 H765 V35 M37 763 H763 V37 M39 761 H761 V39 M41 759 H759 V41 M43 757 V43 H757 M45 755 V45 H755 M47 753 H753 V47 M49 751 H751 V49 M51 749 H749 V51 M53 747 H747 V53 M55 745 H745 V55 M61 739 H739 V61 M63 737 H737 V63 M65 735 H735 V65 M67 733 H733 V67 M69 731 H731 V69 M71 729 H729 V71 M73 727 H727 V73 M75 725 V75 H725 M69 731 H731 V69 M71 729 H729 V71 M75 725 H725 V75 M77 723 H723 V77 M79 721 H721 V79 M83 717 V83 H717 M87 713 H713 V87 M91 709 H709 V91 M95 705 V95 H705 M97 703 H703 V97 M99 701 H701 V99 M101 699 V101 H699 M103 697 V103 H697 M105 695 H695 V105 M107 693 H693 V107 M109 691 H691 V109 M111 689 H689 V111 M117 683 H683 V117 M119 681 V119 H681 M121 679 V121 H679 M125 675 V125 H675 M127 673 H673 V127 M129 671 V129 H671 M131 669 H669 V131 M133 667 V133 H667 M137 663 H663 V137 M139 661 H661 V139 M143 657 V143 H657 M146 654 H654 V146 M148 652 V148 H652 M152 648 H648 V152 M154 646 H646 V154 M158 642 H642 V158 M160 640 H640 V160 M162 638 H638 V162 M148 652 H652 V148 M150 650 H650 V150 M152 648 H648 V152 M154 646 V154 H646 M156 644 H644 V156 M160 640 H640 V160 M162 638 H638 V162 M164 636 V164 H636 M168 632 V168 H632 M172 628 V172 H628 M174 626 H626 V174 M176 624 V176 H624 M178 622 H622 V178 M180 620 H620 V180 M182 618 H618 V182 M184 616 H616 V184 M188 612 V188 H612 M190 610 V190 H610 M192 608 V192 H608 M194 606 H606 V194 M198 602 H602 V198 M200 600 H600 V200 M202 598 H598 V202 M206 594 V206 H594 M208 592 H592 V208 M210 590 V210 H590 M212 588 V212 H588 M214 586 V214 H586 M216 584 V216 H584 M218 582 V218 H582 M222 578 H578 V222"></path><path fill="none" stroke="#FFF" d="M0 0 M16 784 V16 H784 M18 782 V18 H782 M20 780 V20 H780 M22 778 V22 H778 M24 776 V24 H776 M26 774 V26 H774 M28 772 V28 H772 M17 783 V17 H783 M19 781 V19 H781 M21 779 V21 H779 M23 777 V23 H777 M25 775 V25 H775 M27 773 V27 H773 M29 771 H771 V29 M35 765 V35 H765 M37 763 V37 H763 M39 761 V39 H761 M41 759 V41 H759 M43 757 H757 V43 M45 755 H755 V45 M47 753 V47 H753 M49 751 V49 H751 M51 749 V51 H749 M53 747 V53 H747 M55 745 V55 H745 M61 739 V61 H739 M63 737 V63 H737 M65 735 V65 H735 M67 733 V67 H733 M69 731 V69 H731 M71 729 V71 H729 M73 727 V73 H727 M75 725 H725 V75 M69 731 V69 H731 M71 729 V71 H729 M75 725 V75 H725 M77 723 V77 H723 M79 721 V79 H721 M83 717 H717 V83 M87 713 V87 H713 M91 709 V91 H709 M95 705 H705 V95 M97 703 V97 H703 M99 701 V99 H701 M101 699 H699 V101 M103 697 H697 V103 M105 695 V105 H695 M107 693 V107 H693 M109 691 V109 H691 M111 689 V111 H689 M117 683 V117 H683 M119 681 H681 V119 M121 679 H679 V121 M125 675 H675 V125 M127 673 V127 H673 M129 671 H671 V129 M131 669 V131 H669 M133 667 H667 V133 M137 663 V137 H663 M139 661 V139 H661 M143 657 H657 V143 M146 654 V146 H654 M148 652 H652 V148 M152 648 V152 H648 M154 646 V154 H646 M158 642 V158 H642 M160 640 V160 H640 M162 638 V162 H638 M148 652 V148 H652 M150 650 V150 H650 M152 648 V152 H648 M154 646 H646 V154 M156 644 V156 H644 M160 640 V160 H640 M162 638 V162 H638 M164 636 H636 V164 M168 632 H632 V168 M172 628 H628 V172 M174 626 V174 H626 M176 624 H624 V176 M178 622 V178 H622 M180 620 V180 H620 M182 618 V182 H618 M184 616 V184 H616 M188 612 H612 V188 M190 610 H610 V190 M192 608 H608 V192 M194 606 V194 H606 M198 602 V198 H602 M200 600 V200 H600 M202 598 V202 H598 M206 594 H594 V206 M208 592 V208 H592 M210 590 H590 V210 M212 588 H588 V212 M214 586 H586 V214 M216 584 H584 V216 M218 582 H582 V218 M222 578 V222 H578"></path></svg>